<svg width="31" height="60" viewBox="0 0 31 60" fill="none" xmlns="http://www.w3.org/2000/svg">
<path d="M15.1434 60C14.1773 60 13.3668 59.68 12.7121 59.04C12.0597 58.4022 11.7334 57.6111 11.7334 56.6667V52.8333C9.17592 52.2778 6.93099 51.3056 4.99865 49.9167C3.06631 48.5278 1.50339 46.5833 0.309886 44.0833C-0.0879486 43.3056 -0.102725 42.4867 0.265556 41.6267C0.636111 40.7644 1.30447 40.1389 2.27064 39.75C3.06631 39.4167 3.8904 39.4311 4.7429 39.7933C5.59541 40.1533 6.24899 40.75 6.70366 41.5833C7.66983 43.25 8.89175 44.5144 10.3694 45.3767C11.8471 46.2367 13.6658 46.6667 15.8254 46.6667C18.1556 46.6667 20.1312 46.1533 21.752 45.1267C23.3707 44.0978 24.18 42.5 24.18 40.3333C24.18 38.3889 23.5548 36.8467 22.3045 35.7067C21.0541 34.5689 18.1556 33.2778 13.6089 31.8333C8.72125 30.3333 5.36807 28.5422 3.5494 26.46C1.73072 24.3756 0.821387 21.8333 0.821387 18.8333C0.821387 15.2222 2.01489 12.4167 4.4019 10.4167C6.78891 8.41667 9.23275 7.27778 11.7334 7V3.33333C11.7334 2.38889 12.0597 1.59667 12.7121 0.956667C13.3668 0.318889 14.1773 0 15.1434 0C16.1096 0 16.9201 0.318889 17.5748 0.956667C18.2272 1.59667 18.5535 2.38889 18.5535 3.33333V7C20.7131 7.33333 22.5886 8.01444 24.18 9.04333C25.7713 10.07 27.0785 11.3333 28.1015 12.8333C28.613 13.5556 28.713 14.3611 28.4016 15.25C28.0879 16.1389 27.4479 16.7778 26.4817 17.1667C25.6861 17.5 24.862 17.5133 24.0095 17.2067C23.157 16.9022 22.3613 16.3611 21.6225 15.5833C20.8836 14.8056 20.0175 14.2078 19.024 13.79C18.0283 13.3744 16.7916 13.1667 15.3139 13.1667C12.8133 13.1667 10.9093 13.7089 9.60217 14.7933C8.295 15.8756 7.64141 17.2222 7.64141 18.8333C7.64141 20.6667 8.49392 22.1111 10.1989 23.1667C11.9039 24.2222 14.8593 25.3333 19.065 26.5C22.9865 27.6111 25.9566 29.3744 27.9753 31.79C29.9918 34.2078 31 37 31 40.1667C31 44.1111 29.8065 47.1111 27.4195 49.1667C25.0325 51.2222 22.0771 52.5 18.5535 53V56.6667C18.5535 57.6111 18.2272 58.4022 17.5748 59.04C16.9201 59.68 16.1096 60 15.1434 60Z" fill="#FBFBFE"/>
</svg>
