<svg width="68" height="68" viewBox="0 0 68 68" fill="none" xmlns="http://www.w3.org/2000/svg">
<g clip-path="url(#clip0_22_130)">
<path d="M31.1667 14.3933V5.66666C17 7.08332 5.66669 19.295 5.66669 34C5.66669 48.705 17 60.9167 31.1667 62.3333V53.6067C22.6667 52.2467 14.1667 43.9733 14.1667 34C14.1667 24.0267 22.6667 15.7533 31.1667 14.3933ZM53.7484 31.1667H62.3334C61.0017 17 51 6.99832 36.8334 5.66666V14.3933C45.3334 15.6117 52.53 22.6667 53.7484 31.1667ZM36.8334 53.6067V62.3333C51 61.0017 61.0017 51 62.3334 36.8333H53.7484C52.53 45.3333 45.3334 52.3883 36.8334 53.6067Z" fill="#FBFBFE"/>
</g>
<defs>
<clipPath id="clip0_22_130">
<rect width="68" height="68" fill="white"/>
</clipPath>
</defs>
</svg>
