<svg width="92" height="92" viewBox="0 0 92 92" fill="none" xmlns="http://www.w3.org/2000/svg">
<circle cx="46" cy="46" r="45.5" fill="white" stroke="#EFEFEF"/>
<path d="M46.8333 38.083C46.8333 37.3926 46.2737 36.833 45.5833 36.833C44.893 36.833 44.3333 37.3926 44.3333 38.083V38.507C42.4715 38.6386 41 40.1902 41 42.088C41 43.7351 42.1229 45.1695 43.7164 45.5689L46.839 46.3533C47.3269 46.4773 47.6667 46.9152 47.6667 47.413C47.6667 48.0149 47.1791 48.503 46.5767 48.503H45.6759C45.6453 48.5008 45.6145 48.4996 45.5833 48.4996C45.5522 48.4996 45.5214 48.5008 45.4908 48.503H44.75C44.3508 48.503 43.9927 48.2926 43.7567 47.9064C43.3969 47.3173 42.6275 47.1314 42.0384 47.4913C41.4493 47.8512 41.2634 48.6205 41.6233 49.2096C42.1864 50.1315 43.1425 50.8433 44.3333 50.9794V51.4163C44.3333 52.1067 44.893 52.6663 45.5833 52.6663C46.2737 52.6663 46.8333 52.1067 46.8333 51.4163V50.994C48.6976 50.8624 50.1667 49.3083 50.1667 47.413C50.1667 45.7645 49.0436 44.3326 47.4518 43.9296L44.3236 43.1438C43.8409 43.0229 43.5 42.5873 43.5 42.088C43.5 41.4856 43.9881 40.998 44.59 40.998H45.519C45.5403 40.9991 45.5618 40.9996 45.5833 40.9996C45.6049 40.9996 45.6264 40.9991 45.6477 40.998H46.4167C46.8138 40.998 47.1711 41.2078 47.4045 41.5906C47.764 42.1799 48.5332 42.3663 49.1226 42.0068C49.7119 41.6474 49.8983 40.8782 49.5388 40.2888C48.9766 39.3671 48.0204 38.6577 46.8333 38.5216V38.083Z" fill="#0065FF"/>
<path fill-rule="evenodd" clip-rule="evenodd" d="M42.1816 30.0027C44.3617 29.1103 46.805 29.1103 48.9851 30.0027L57.3188 33.4129C59.041 34.1183 60.1667 35.7932 60.1667 37.6546V44.2196C60.1667 52.3873 54.0586 59.9592 45.8575 61.8025C45.677 61.8431 45.4897 61.8431 45.3092 61.8025C37.1081 59.9592 31 52.3873 31 44.2196V37.6546C31 35.7943 32.1251 34.1164 33.8492 33.4123L42.1816 30.0027ZM43.1286 32.3164C44.7018 31.6724 46.4649 31.6724 48.0381 32.3164L56.3716 35.7265C57.1559 36.0479 57.6667 36.8095 57.6667 37.6546V44.2196C57.6667 51.0985 52.5335 57.5998 45.5833 59.2991C38.6332 57.5998 33.5 51.0985 33.5 44.2196V37.6546C33.5 36.8084 34.0127 36.0459 34.7951 35.7265L43.1286 32.3164Z" fill="#0065FF"/>
</svg>
