<svg width="92" height="92" viewBox="0 0 92 92" fill="none" xmlns="http://www.w3.org/2000/svg">
<circle cx="46" cy="46" r="45.5" fill="white" stroke="#EFEFEF"/>
<path d="M57.6666 44.3333V39.0467C57.6666 38.1633 57.315 37.315 56.69 36.69L51.9766 31.9767C51.3516 31.3517 50.5033 31 49.62 31H37.6666C35.825 31 34.3333 32.4917 34.3333 34.3333V57.6667C34.3333 59.5083 35.825 61 37.6666 61H44.3333" stroke="#0065FF" stroke-width="2.5" stroke-linecap="round" stroke-linejoin="round"/>
<path d="M57.6666 39.3333H51C50.08 39.3333 49.3333 38.5867 49.3333 37.6667V31" stroke="#0065FF" stroke-width="2.5" stroke-linecap="round" stroke-linejoin="round"/>
<path fill-rule="evenodd" clip-rule="evenodd" d="M54.5767 60.5117L60.51 54.5783C61.1617 53.9267 61.1617 52.8717 60.51 52.2217L57.8667 49.5783C57.215 48.9267 56.16 48.9267 55.51 49.5783L49.5767 55.5117C49.2634 55.825 49.0884 56.2483 49.0884 56.69V61H53.3984C53.84 61 54.2634 60.825 54.5767 60.5117Z" stroke="#0065FF" stroke-width="2.5" stroke-linecap="round" stroke-linejoin="round"/>
</svg>
