<svg width="150" height="54" viewBox="0 0 190 54" fill="none" xmlns="http://www.w3.org/2000/svg">
<g clip-path="url(#clip0_4_26)">
<path d="M0.508271 19.8204L27.2878 0L53.9402 19.8204L54.044 43.7198L48.6097 39.4416V22.8691L27.2242 7.75093L6.09289 22.7419L5.83876 42.3079L17.008 34.1775L43.3661 53.4212H34.0033L16.7539 41.1652L0 52.728L0.508271 19.8204Z" fill="black"/>
<path d="M33.548 43.8831L37.2181 41.1652L54.044 53.3619V46.6286L37.5887 33.5775L28.5839 40.2663L33.548 43.8831Z" fill="#FF7006"/>
<path d="M10.9151 53.3619L20.8624 46.0201L25.6253 49.4737L20.6866 53.3619H10.9151Z" fill="#FF7006"/>
<path d="M81.6304 53.2325V38.6211H63.6715V53.2325H58.9149V19.248H63.6715V33.8595H81.6304V19.248H86.3869V53.2325H81.6304Z" fill="black"/>
<path d="M101.129 35.829L94.5574 24.4358C94.3964 24.1581 94.1381 24.0075 93.8183 24.0075H90.5082V19.248H93.8204C95.8704 19.248 97.6515 20.2762 98.6765 22.055L105.237 33.4333C105.398 33.7111 105.657 33.8616 105.979 33.8616H109.409C109.731 33.8616 109.99 33.7111 110.149 33.4333L116.712 22.055C117.737 20.2762 119.518 19.248 121.568 19.248H124.88V24.0075H121.57C121.248 24.0075 120.99 24.156 120.831 24.4358L114.251 35.8438C113.344 37.419 111.832 38.39 110.074 38.5851V53.2347H105.318V38.5851C103.554 38.3879 102.046 37.4063 101.133 35.829H101.129Z" fill="black"/>
<path d="M142.119 36.0283C145.414 36.0283 148.123 33.3146 148.123 30.0179C148.123 26.7212 145.414 24.0075 142.119 24.0075H128.997V19.248H142.119C148.038 19.248 152.877 24.0923 152.877 30.0179C152.877 32.7273 151.856 35.3159 150.022 37.3067C148.165 39.3228 145.62 40.5652 142.883 40.7602H142.856H139.016C138.862 40.7602 138.705 40.7666 138.55 40.7814C136.017 41.0062 133.974 43.0541 133.747 45.5897C133.732 45.7445 133.726 45.8993 133.726 46.0562V53.2325H128.997V46.0562C128.997 40.5376 133.504 36.0283 139.016 36.0283H142.119Z" fill="black"/>
<path d="M172.221 18.4021C182.039 18.4021 190 26.3714 190 36.2C190 46.0286 182.039 53.9979 172.221 53.9979C162.403 53.9979 154.442 46.0286 154.442 36.2C154.442 26.3714 162.403 18.4021 172.221 18.4021ZM185.246 36.2021C185.246 29.0003 179.415 23.1638 172.221 23.1638C165.027 23.1638 159.197 29.0024 159.197 36.2021C159.197 43.4018 165.027 49.2405 172.221 49.2405C179.415 49.2405 185.246 43.4039 185.246 36.2021Z" fill="black"/>
</g>
<defs>
<clipPath id="clip0_4_26">
<rect width="190" height="54" fill="white"/>
</clipPath>
</defs>
</svg>
